<svg width="12" height="14" viewBox="0 0 12 14" fill="none" xmlns="http://www.w3.org/2000/svg">
  <path d="M4.2373 13.4795H8.71484C9.41309 13.4795 9.88184 13.0254 9.91602 12.3271L10.2529 5.22754H10.8389C11.0391 5.22754 11.2051 5.05664 11.2051 4.85645C11.2051 4.65625 11.0391 4.49023 10.8389 4.49023H8.60742V3.74316C8.60742 3.03516 8.14844 2.60547 7.39648 2.60547H5.5459C4.79395 2.60547 4.33496 3.03516 4.33496 3.74316V4.49023H2.11328C1.91797 4.49023 1.74707 4.65625 1.74707 4.85645C1.74707 5.06152 1.91797 5.22754 2.11328 5.22754H2.69922L3.03613 12.332C3.07031 13.0303 3.53418 13.4795 4.2373 13.4795ZM5.11133 3.79199C5.11133 3.51367 5.30176 3.33301 5.59473 3.33301H7.34766C7.64062 3.33301 7.83105 3.51367 7.83105 3.79199V4.49023H5.11133V3.79199ZM4.30566 12.7422C4.02734 12.7422 3.81738 12.5322 3.80273 12.2441L3.46094 5.22754H9.4668L9.14941 12.2441C9.13477 12.5371 8.9248 12.7422 8.63672 12.7422H4.30566ZM5.02832 11.9072C5.21387 11.9072 5.33594 11.79 5.33105 11.6191L5.18457 6.39453C5.17969 6.22363 5.05273 6.11133 4.87695 6.11133C4.69141 6.11133 4.56934 6.22852 4.57422 6.39941L4.72559 11.6191C4.73047 11.7949 4.84766 11.9072 5.02832 11.9072ZM6.47852 11.9072C6.66406 11.9072 6.79102 11.79 6.79102 11.6191V6.39941C6.79102 6.22852 6.66406 6.11133 6.47852 6.11133C6.29297 6.11133 6.16113 6.22852 6.16113 6.39941V11.6191C6.16113 11.79 6.29297 11.9072 6.47852 11.9072ZM7.92383 11.9072C8.09961 11.9072 8.22168 11.7949 8.22656 11.6191L8.37793 6.39941C8.38281 6.22852 8.25586 6.11133 8.07031 6.11133C7.89941 6.11133 7.77246 6.22363 7.76758 6.39941L7.62109 11.6191C7.61621 11.79 7.73828 11.9072 7.92383 11.9072Z" fill="#717C8F"/>
</svg>
